# xmcd
#
# Track frame offsets:
#	150
#	13352
#	27817
#	39297
#	52490
#	60602
#	68665
#	78362
#	88240
#	101097
#	112500
#	124590
#
# Disc length: 1816 seconds
#
# Revision: 1
# Processed by: cddbd v1.5.1PL2 Copyright (c) Steve Scherf et al.
# Submitted via: audiograbber 1.83.01
#
DISCID=9807160c
DTITLE=Various Artist - The Best of Country Vol. 3
DYEAR=1999
DGENRE=Country
TTITLE0=The Tennessee Riders - She's Every Woman
TTITLE1=The Tennessee Riders - Take Me Home, Country Roads
TTITLE2=Highway Caravan - Ramblin' Man
TTITLE3=The Tennessee Riders - All My Trials
TTITLE4=The Mountain Cowboys - Oh Susannah
TTITLE5=The Tennessee Riders - Golden Slippers
TTITLE6=The Tennessee Riders - John Hardy
TTITLE7=The Mountain Cowboys - Cripple Creek
TTITLE8=The Tennessee Riders - Midnight Special
TTITLE9=The Tennessee Riders - Big Rock Candy Mountain
TTITLE10=Highway Caravan - Death By The Road
TTITLE11=The Tennessee Riders - I Walk The Line
EXTD=
EXTT0=
EXTT1=
EXTT2=
EXTT3=
EXTT4=
EXTT5=
EXTT6=
EXTT7=
EXTT8=
EXTT9=
EXTT10=
EXTT11=
PLAYORDER=
